<svg width="1300" height="286" viewBox="0 0 1300 286" fill="none" xmlns="http://www.w3.org/2000/svg">
<path d="M407.703 45.5C405.34 36.9064 400.73 29.0719 394.333 22.7767C387.935 16.4815 379.973 11.9454 371.24 9.61999C339.268 1.03999 210.589 1.03999 210.589 1.03999C210.589 1.03999 81.9106 1.29999 49.939 9.87999C41.2057 12.2054 33.2438 16.7415 26.8463 23.0367C20.4488 29.3319 15.8388 37.1664 13.4756 45.76C3.8049 101.66 0.0528647 186.836 13.7399 240.5C16.1031 249.094 20.713 256.928 27.1105 263.223C33.508 269.518 41.4699 274.055 50.2033 276.38C82.1748 284.96 210.854 284.96 210.854 284.96C210.854 284.96 339.533 284.96 371.504 276.38C380.237 274.055 388.199 269.518 394.597 263.223C400.994 256.928 405.604 249.094 407.967 240.5C418.167 184.522 421.311 99.398 407.703 45.5Z" fill="#FF0000"/>
<path d="M169.634 203.84L276.382 143L169.634 82.16V203.84Z" fill="white"/>
<path d="M602.175 259.22C593.984 253.76 588.171 245.44 584.736 234C581.301 222.56 579.715 207.48 579.715 188.5V162.76C579.715 143.78 581.565 128.18 585.528 116.74C589.492 105.04 595.569 96.72 604.024 91.52C612.48 86.32 623.313 83.46 636.789 83.46C650 83.46 660.833 86.06 668.76 91.52C676.687 96.98 682.764 105.3 686.463 116.74C690.163 128.18 692.012 143.52 692.012 162.5V188.24C692.012 207.22 690.163 222.3 686.463 233.74C682.764 245.18 676.951 253.5 668.76 258.96C660.569 264.16 649.472 267.02 635.732 267.02C621.463 267.28 610.366 264.42 602.175 259.22V259.22ZM647.886 231.4C650.264 225.68 651.321 216.06 651.321 203.06V147.68C651.321 134.94 650.264 125.58 647.886 119.86C645.508 113.88 641.545 111.02 635.996 111.02C630.447 111.02 626.748 113.88 624.37 119.86C621.992 125.84 620.935 134.94 620.935 147.68V203.06C620.935 216.06 621.992 225.68 624.106 231.4C626.22 237.12 630.183 239.98 635.996 239.98C641.545 239.98 645.508 237.12 647.886 231.4V231.4ZM1227.07 189.02V198.12L1228.13 223.86C1228.92 229.58 1230.24 233.74 1232.36 236.34C1234.47 238.94 1237.91 240.24 1242.4 240.24C1248.48 240.24 1252.7 237.9 1254.82 233.22C1257.2 228.54 1258.25 220.74 1258.52 210.08L1293.66 212.16C1293.92 213.72 1293.92 215.8 1293.92 218.4C1293.92 234.78 1289.43 247 1280.18 255.06C1270.94 263.12 1258.25 267.28 1241.61 267.28C1221.52 267.28 1207.52 261.04 1199.59 248.82C1191.67 236.6 1187.44 217.36 1187.44 191.62V160.16C1188.34 115.96 1196.24 83.59 1242.66 83.46C1256.67 83.46 1267.24 86.06 1274.63 91C1282.03 95.94 1287.32 103.74 1290.49 114.4C1293.66 125.06 1294.98 139.62 1294.98 158.34V188.76H1227.07V189.02ZM1232.36 114.14C1230.24 116.74 1228.92 120.64 1228.13 126.36C1227.34 132.08 1227.07 152.36 1227.07 152.36V165.1H1256.67V152.36C1256.67 165.1 1256.4 132.34 1255.61 126.36C1254.82 120.38 1253.5 116.22 1251.38 113.88C1249.27 111.54 1246.1 110.24 1241.87 110.24C1237.38 110.5 1234.21 111.8 1232.36 114.14V114.14ZM503.354 185.64L457.114 21.32H497.541C497.541 21.32 516.433 103.74 522.906 142.48H523.963C531.309 101.348 549.858 21.32 549.858 21.32H590.285L543.516 185.38V264.16H503.618V185.64H503.354Z" fill="white"/>
<path d="M823.069 86.84V264.42H791.362L787.927 242.58H787.134C778.415 258.96 765.468 267.28 748.293 267.28C717.193 267.202 713.732 241.28 713.415 219.44V86.84H754.106V217.1C754.106 224.9 754.898 230.62 756.748 234C760.5 241.228 770.224 239.382 775.508 235.82C778.559 233.791 781.018 231.012 782.642 227.76V86.84H823.069Z" fill="white"/>
<path d="M1030.65 86.84V264.42H998.947L995.512 242.58H994.719C986 258.96 973.053 267.28 955.878 267.28C924.778 267.202 921.317 241.28 921 219.44V86.84H961.691V217.1C961.691 224.9 962.484 230.62 964.333 234C968.085 241.228 977.809 239.382 983.093 235.82C986.144 233.791 988.604 231.012 990.228 227.76V86.84H1030.65Z" fill="white"/>
<path d="M933.516 53.56H893.089V264.42H853.455V53.56H813.028V21.32H933.252V53.56H933.516ZM1165.77 115.18C1163.39 104 1159.43 95.94 1153.88 90.74C1148.33 85.8 1140.93 83.2 1131.16 83.2C1123.72 83.1839 1116.45 85.3571 1110.28 89.44C1103.68 93.6 1098.92 99.06 1095.22 105.82H1094.96V12.22H1055.85V264.16H1089.41L1093.64 247.26H1094.43C1097.66 253.212 1102.51 258.163 1108.43 261.56C1114.78 264.94 1121.65 266.76 1129.31 266.76C1143.05 266.76 1153.09 260.52 1159.7 248.04C1166.04 235.56 1169.47 216.06 1169.47 189.8V161.72C1169.47 141.96 1168.15 126.36 1165.77 115.18V115.18ZM1128.52 187.72C1128.52 200.72 1127.99 210.86 1126.93 218.14C1125.87 225.42 1124.02 230.62 1121.38 233.74C1118.74 236.86 1115.3 238.42 1111.08 238.42C1102.89 238.16 1098.24 234.52 1094.96 229.06V128.18C1096.28 123.24 1098.66 119.34 1102.09 116.22C1107.91 109.798 1117.84 109.72 1122.44 116.22C1124.82 119.34 1126.14 124.8 1127.2 132.34C1127.99 139.88 1128.52 150.54 1128.52 164.58V187.72Z" fill="white"/>
</svg>
